<svg width="152" height="34" viewBox="0 0 152 34" fill="none" xmlns="http://www.w3.org/2000/svg">
<path d="M8.06405 5.65306C10.2909 5.65306 12.0961 7.43559 12.0961 9.63444V24.3656C12.0961 26.5644 10.2909 28.3469 8.06405 28.3469H4.03203C1.8052 28.3469 0 26.5644 0 24.3656V9.63444C0 7.43559 1.8052 5.65306 4.03203 5.65306H8.06405Z" fill="#292929"/>
<path d="M17.7409 5.65306C19.411 5.65306 20.7649 6.98995 20.7649 8.6391V25.3609C20.7649 27.01 19.411 28.3469 17.7409 28.3469C16.0708 28.3469 14.7169 27.01 14.7169 25.3609V8.6391C14.7169 6.98995 16.0708 5.65306 17.7409 5.65306Z" fill="#292929"/>
<path d="M33.7107 26.827V6.13291C33.7107 4.26793 34.2555 2.78551 35.3452 1.68565C36.459 0.561884 38.0329 0 40.0669 0C40.8176 0 41.5319 0.0956401 42.2099 0.28692C42.9121 0.45429 43.5053 0.729254 43.9896 1.11181L42.9363 3.72996C42.5731 3.44304 42.1614 3.22785 41.7014 3.08439C41.2413 2.91702 40.757 2.83333 40.2485 2.83333C39.2315 2.83333 38.4567 3.12025 37.924 3.69409C37.3913 4.24402 37.1249 5.06892 37.1249 6.16878V8.71519L37.1975 10.2932V26.827H33.7107ZM30.4418 10.6519V7.81857H42.7184V10.6519H30.4418Z" fill="#292929"/>
<path d="M53.968 27.0422C52.0309 27.0422 50.3117 26.6238 48.8104 25.7869C47.3091 24.9501 46.1226 23.8024 45.2509 22.3439C44.3792 20.8615 43.9433 19.1878 43.9433 17.3228C43.9433 15.4339 44.3792 13.7602 45.2509 12.3017C46.1226 10.8432 47.3091 9.70745 48.8104 8.89452C50.3117 8.05767 52.0309 7.63924 53.968 7.63924C55.8809 7.63924 57.588 8.05767 59.0893 8.89452C60.6148 9.70745 61.8013 10.8432 62.6488 12.3017C63.5205 13.7363 63.9563 15.41 63.9563 17.3228C63.9563 19.2117 63.5205 20.8854 62.6488 22.3439C61.8013 23.8024 60.6148 24.9501 59.0893 25.7869C57.588 26.6238 55.8809 27.0422 53.968 27.0422ZM53.968 24.0295C55.2029 24.0295 56.3047 23.7546 57.2732 23.2046C58.266 22.6547 59.0408 21.8776 59.5978 20.8734C60.1547 19.8453 60.4332 18.6617 60.4332 17.3228C60.4332 15.9599 60.1547 14.7883 59.5978 13.808C59.0408 12.8038 58.266 12.0267 57.2732 11.4768C56.3047 10.9269 55.2029 10.6519 53.968 10.6519C52.7331 10.6519 51.6313 10.9269 50.6628 11.4768C49.6942 12.0267 48.9194 12.8038 48.3382 13.808C47.7571 14.7883 47.4665 15.9599 47.4665 17.3228C47.4665 18.6617 47.7571 19.8453 48.3382 20.8734C48.9194 21.8776 49.6942 22.6547 50.6628 23.2046C51.6313 23.7546 52.7331 24.0295 53.968 24.0295Z" fill="#292929"/>
<path d="M68.7785 26.827V7.81857H72.1201V12.9831L71.7932 11.692C72.3259 10.3769 73.2218 9.37271 74.4809 8.67932C75.7401 7.98593 77.2898 7.63924 79.1301 7.63924V10.9747C78.9848 10.9508 78.8395 10.9388 78.6942 10.9388C78.5731 10.9388 78.4521 10.9388 78.331 10.9388C76.4665 10.9388 74.9894 11.4887 73.8998 12.5886C72.8102 13.6885 72.2654 15.2785 72.2654 17.3587V26.827H68.7785Z" fill="#292929"/>
<path d="M107.509 7.63924C109.058 7.63924 110.426 7.93811 111.613 8.53586C112.799 9.13361 113.719 10.0422 114.373 11.2616C115.051 12.481 115.39 14.0232 115.39 15.8882V26.827H111.903V16.2827C111.903 14.4416 111.468 13.0549 110.596 12.1224C109.724 11.1899 108.501 10.7236 106.927 10.7236C105.765 10.7236 104.748 10.9627 103.876 11.4409C103.005 11.9191 102.327 12.6245 101.842 13.557C101.382 14.4895 101.152 15.6491 101.152 17.0359V26.827H97.6655V16.2827C97.6655 14.4416 97.2296 13.0549 96.3579 12.1224C95.5104 11.1899 94.2876 10.7236 92.6895 10.7236C91.5514 10.7236 90.5465 10.9627 89.6748 11.4409C88.8031 11.9191 88.1251 12.6245 87.6408 13.557C87.1566 14.4895 86.9144 15.6491 86.9144 17.0359V26.827H83.4276V7.81857H86.7691V12.8755L86.2243 11.5844C86.8297 10.3411 87.7619 9.37271 89.0211 8.67932C90.2802 7.98593 91.7451 7.63924 93.4159 7.63924C95.2562 7.63924 96.8422 8.09353 98.174 9.00211C99.5058 9.88678 100.377 11.2377 100.789 13.0549L99.3726 12.481C99.9537 11.0225 100.971 9.85091 102.424 8.96624C103.876 8.08157 105.571 7.63924 107.509 7.63924Z" fill="#292929"/>
<path d="M122.315 26.827V6.13291C122.315 4.26793 122.859 2.78551 123.949 1.68565C125.063 0.561884 126.637 0 128.671 0C129.421 0 130.136 0.0956401 130.814 0.28692C131.516 0.45429 132.109 0.729254 132.593 1.11181L131.54 3.72996C131.177 3.44304 130.765 3.22785 130.305 3.08439C129.845 2.91702 129.361 2.83333 128.852 2.83333C127.835 2.83333 127.06 3.12025 126.528 3.69409C125.995 4.24402 125.729 5.06892 125.729 6.16878V8.71519L125.801 10.2932V26.827H122.315ZM119.046 10.6519V7.81857H131.322V10.6519H119.046Z" fill="#292929"/>
<path d="M135.801 34C134.881 34 133.985 33.8446 133.113 33.5338C132.241 33.2468 131.491 32.8165 130.861 32.2426L132.35 29.6603C132.835 30.1146 133.367 30.4613 133.948 30.7004C134.529 30.9395 135.147 31.0591 135.801 31.0591C136.648 31.0591 137.35 30.8439 137.907 30.4135C138.464 29.9831 138.985 29.218 139.469 28.1181L140.668 25.5L141.031 25.0696L148.586 7.81857H152L142.665 28.7278C142.109 30.0668 141.479 31.1188 140.777 31.884C140.099 32.6491 139.348 33.1871 138.525 33.4979C137.702 33.8326 136.794 34 135.801 34ZM140.377 27.4367L131.587 7.81857H135.22L142.702 24.7468L140.377 27.4367Z" fill="#292929"/>
</svg>
